<?xml version="1.0" encoding="utf-8"?>
<!-- Generator: Adobe Illustrator 23.0.2, SVG Export Plug-In . SVG Version: 6.00 Build 0)  -->
<svg version="1.1" xmlns="http://www.w3.org/2000/svg" xmlns:xlink="http://www.w3.org/1999/xlink" x="0px" y="0px"
	 viewBox="0 0 648.99 485.04" style="enable-background:new 0 0 648.99 485.04;" xml:space="preserve">
<style type="text/css">
	.st0{display:none;}
	.st1{display:inline;fill:#FFFFFF;}
	.st2{display:inline;}
	.st3{fill:#FFFFFF;}
	.st4{fill:#C1272C;}
</style>
<g id="FreeVector.com_BG" class="st0">
	<rect x="0" y="0" class="st1" width="648.99" height="485.04"/>
</g>
<g id="FreeVector.com_License" class="st0">
	<g>
		<g id="FreeVector.com_Logo_20_" class="st2">
			<g id="FreeVector.com_Logo_21_">
				<path d="M120.21,499.78c-0.02-0.86-0.78-1.46-1.62-1.46c-1.85,0-2.14,1.58-2.14,2.98c0,1.31,0.57,2.65,1.97,2.65
					c1.15,0,1.73-0.66,1.89-1.73h3.22c-0.29,2.71-2.4,4.27-5.09,4.27c-3.04,0-5.3-2.09-5.3-5.19c0-3.22,2.05-5.52,5.3-5.52
					c2.52,0,4.76,1.33,4.99,4H120.21z"/>
				<path d="M128.82,495.85c-3.13,0-5.3,2.31-5.3,5.34c0,3.03,2.18,5.32,5.3,5.32c3.13,0,5.33-2.29,5.33-5.32
					C134.15,498.16,131.95,495.85,128.82,495.85z"/>
				<path d="M111.48,503.35c-0.86,0-1.46,0.64-1.46,1.47c0,0.83,0.6,1.46,1.46,1.46c0.86,0,1.46-0.63,1.46-1.46
					C112.94,503.99,112.34,503.35,111.48,503.35z"/>
				<path d="M134.38,496.5h3.14v1.35h0.04c0.59-0.99,1.64-1.64,2.83-1.64c1.24,0,2.34,0.4,2.87,1.6c0.78-1.05,1.75-1.6,3.08-1.6
					c3.14,0,3.48,2.38,3.48,4.26v5.89h-3.23v-5.8c0-1.06-0.51-1.69-1.35-1.69c-1.39,0-1.52,1.06-1.52,2.66v4.83h-3.23v-5.61
					c0-1.16-0.34-1.88-1.22-1.88c-1.16,0-1.65,0.66-1.65,2.68v4.81h-3.23V496.5z"/>
				<polygon points="68.65,506.26 64.97,506.26 61.71,496.5 65.04,496.5 66.83,502.96 66.86,502.96 68.67,496.5 71.93,496.5 				"/>
				<path d="M73.67,502.17c0.06,1.34,0.83,2.22,2.18,2.22c0.77,0,1.52-0.36,1.82-1.07h2.99c-0.58,2.26-2.67,3.24-4.85,3.24
					c-3.18,0-5.34-1.92-5.34-5.19c0-2.99,2.39-5.13,5.27-5.13c3.5,0,5.25,2.63,5.1,5.94H73.67z"/>
				<path d="M87.68,500.08c-0.02-0.83-0.75-1.41-1.56-1.41c-1.79,0-2.07,1.53-2.07,2.88c0,1.26,0.55,2.56,1.9,2.56
					c1.11,0,1.67-0.64,1.82-1.68h3.1c-0.28,2.61-2.31,4.12-4.91,4.12c-2.93,0-5.11-2.01-5.11-5c0-3.1,1.97-5.32,5.11-5.32
					c2.42,0,4.59,1.28,4.82,3.85H87.68z"/>
				<path d="M96.95,498.57h-1.97v4.44c0,0.77,0.45,0.94,1.14,0.94c0.26,0,0.55-0.04,0.83-0.04v2.35c-0.58,0.02-1.16,0.1-1.75,0.1
					c-2.73,0-3.42-0.79-3.42-3.45v-4.34h-1.62v-2.07h1.62v-2.95h3.2v2.95h1.97V498.57z"/>
				<path d="M101.34,496.22c-3.03,0-5.13,2.24-5.13,5.17c0,2.94,2.11,5.16,5.13,5.16c3.03,0,5.15-2.22,5.15-5.16
					C106.49,498.46,104.37,496.22,101.34,496.22z"/>
				<path d="M106.28,496.5h3.11v1.71h0.04c0.47-1.24,1.56-1.9,2.93-1.9c0.24,0,0.51,0.02,0.75,0.07v2.92
					c-0.41-0.11-0.79-0.18-1.22-0.18c-1.58,0-2.41,1.09-2.41,2.31v4.83h-3.2V496.5z"/>
				<path d="M36.6,496.5h3.11v1.71h0.04c0.47-1.24,1.56-1.9,2.94-1.9c0.24,0,0.51,0.02,0.75,0.07v2.92
					c-0.41-0.11-0.78-0.18-1.22-0.18c-1.58,0-2.41,1.09-2.41,2.31v4.83h-3.2V496.5z"/>
				<path d="M45.48,502.17c0.06,1.34,0.82,2.22,2.18,2.22c0.77,0,1.52-0.36,1.82-1.07h2.99c-0.59,2.26-2.67,3.24-4.85,3.24
					c-3.18,0-5.34-1.92-5.34-5.19c0-2.99,2.39-5.13,5.27-5.13c3.5,0,5.25,2.63,5.1,5.94H45.48z"/>
				<path d="M55.56,502.17c0.06,1.34,0.83,2.22,2.18,2.22c0.77,0,1.52-0.36,1.82-1.07h2.99c-0.58,2.26-2.67,3.24-4.85,3.24
					c-3.18,0-5.34-1.92-5.34-5.19c0-2.99,2.38-5.13,5.27-5.13c3.5,0,5.25,2.63,5.1,5.94H55.56z"/>
				<path d="M36.02,495.1c0.28,0,0.56,0.02,0.86,0.05v-2.26c-0.51-0.02-1.04-0.05-1.54-0.05c-2.73,0-3.7,0.87-3.7,3.67h-1.54v2.07
					h1.54v7.69h3.2v-7.69h1.92v-2.07h-1.92v-0.43C34.83,495.19,35.28,495.1,36.02,495.1z"/>
			</g>
			<g id="FreeVector_Icon_3_">
				<path class="st3" d="M26.94,499.61c0,3.98-3.23,7.21-7.21,7.21c-3.98,0-7.21-3.23-7.21-7.21c0-3.98,3.23-7.21,7.21-7.21
					C23.71,492.4,26.94,495.62,26.94,499.61z"/>
				<g>
					<path d="M19.71,492.37c-0.66,0-1.29,0.09-1.9,0.25c0.25,0.02,0.41,0.18,0.5,0.49c0,0,1.36,4.49,1.52,4.99
						c0.16,0.51,0.35,1.06,0.35,1.06c-0.11,0.09-0.21,0.2-0.28,0.35c-0.14,0.29-0.22,0.53-0.25,0.76c-0.21-0.36-1.03-1.37-1.59-2.04
						c0,0-0.04-0.45-0.15-0.87c-0.12-0.42-0.89-3.31-0.89-3.31c-0.14-0.54-0.08-1,0.22-1.25c-2.83,1-4.85,3.67-4.85,6.81
						c0,2.85,1.67,5.32,4.11,6.49c-0.25-0.37-0.54-0.94-0.67-1.74c-0.22-1.33-0.27-2.18-0.44-2.92c-0.22-0.99-0.16-1.22,0.18-1.65
						c0.17-0.21,0.36-0.35,0.54-0.41c0.18-0.05,0.36,0.06,0.43,0.13c0.43,0.46,1.25,1.34,1.35,1.46c0.2,0.23,0.23,0.52,0.08,0.87
						c-0.06,0.14-0.22,0.2-0.34,0.23c-0.28,0.07-0.6,0.01-0.71-0.09c-0.23-0.19-1.35-1.22-1.35-1.17c0,0.27,0.83,0.93,1.23,1.31
						c0.16,0.16,0.56,0.2,0.88,0.13c0.24-0.06,0.4-0.17,0.47-0.34c0.11-0.26,0.14-0.5,0.08-0.72c0.26,0.15,0.6,0.28,0.89,0.18
						c0.29-0.1,0.46-0.26,0.56-0.42c0.02,0.19,0.05,0.41,0.09,0.66c0.1,0.65,0.22,1.01,0.29,1.22c0.03,0.08,0.05,0.16,0.05,0.19
						c0,0,0,0.01-0.01,0.01c-0.17,0.24-0.42,0.63-0.58,1.11c-0.11,0.32-0.19,0.76-0.2,1.17c0,0.14,0,0.37,0.04,0.37
						c0.04,0,0.04-0.23,0.05-0.37c0.04-0.42,0.11-0.84,0.23-1.14c0.16-0.39,0.37-0.71,0.6-1.04c0.01-0.01,0.02-0.02,0.02-0.03
						c0.05-0.08,0.02-0.17-0.03-0.34c-0.07-0.21-0.19-0.56-0.29-1.19c-0.14-0.93-0.2-1.28,0.14-1.99c0.28-0.58,1.01-0.58,1.17-0.52
						c0.06,0.03,0.07,0.38,0.07,0.7c0.01,0.35,0.02,0.78,0.07,1.31c0.07,0.66,0.34,1.18,0.59,1.49c0.2,0.24,0.36,0.35,0.4,0.31
						c0.04-0.04-0.14-0.17-0.31-0.44c-0.2-0.3-0.42-0.76-0.49-1.37c-0.06-0.52-0.06-0.95-0.07-1.29c-0.01-0.53-0.02-0.79-0.19-0.86
						c-0.09-0.04-0.26-0.06-0.47-0.03l1.35-4.53c0.24-0.82,0.49-1.15,1.01-1.1c0,0,0.01,0,0.02,0.01
						C22.17,492.68,20.98,492.37,19.71,492.37z M19.03,501.19c-0.35,0.12-0.82-0.2-1.02-0.36c-0.18-0.2-1.24-1.34-1.37-1.48
						c-0.27-0.31-0.06-0.94,0.59-1.16c0.19-0.06,0.47-0.07,0.64,0.12c0.78,0.93,1.59,1.92,1.65,2.11
						C19.62,500.76,19.44,501.05,19.03,501.19z M22.23,502.88l0.02,0.01C22.25,502.9,22.24,502.89,22.23,502.88
						C22.23,502.89,22.23,502.89,22.23,502.88z"/>
					<path d="M23.6,493.47c0.17,0.18,0.25,0.43,0.17,0.7l-1.22,5.4c-0.07,0.42-0.2,1.29-0.09,1.88c0.15,0.81,0.47,1.9,0.24,3.11
						c-0.12,0.64-0.32,1.34-0.64,1.88c2.89-0.97,4.97-3.67,4.97-6.84C27.04,497.02,25.67,494.75,23.6,493.47z"/>
				</g>
			</g>
		</g>
		<g id="Legal_Line" class="st2">
			<g>
				<path d="M164.26,496.73h2.5v9.59h-2.5V496.73z"/>
				<path d="M168.39,499.35h2.22v0.95h0.03c0.42-0.7,1.15-1.16,2-1.16c0.87,0,1.65,0.28,2.03,1.13c0.55-0.74,1.24-1.13,2.18-1.13
					c2.22,0,2.46,1.68,2.46,3.01v4.16h-2.28v-4.1c0-0.75-0.36-1.19-0.95-1.19c-0.98,0-1.07,0.75-1.07,1.88v3.41h-2.28v-3.96
					c0-0.82-0.24-1.33-0.86-1.33c-0.82,0-1.17,0.47-1.17,1.89v3.4h-2.28V499.35z"/>
				<path d="M180.73,501.5c0.04-0.91,0.47-1.5,1.09-1.87c0.62-0.35,1.42-0.48,2.22-0.48c1.65,0,3.25,0.36,3.25,2.34v3.05
					c0,0.59,0,1.24,0.27,1.79h-2.3c-0.08-0.21-0.11-0.43-0.13-0.66c-0.59,0.62-1.46,0.86-2.3,0.86c-1.33,0-2.38-0.67-2.38-2.11
					c0-2.27,2.47-2.09,4.06-2.42c0.39-0.08,0.6-0.22,0.6-0.65c0-0.52-0.63-0.72-1.1-0.72c-0.63,0-1.03,0.28-1.14,0.87H180.73z
					 M183.68,505.11c1.09,0,1.45-0.62,1.4-2.05c-0.32,0.2-0.91,0.24-1.41,0.38c-0.51,0.12-0.94,0.33-0.94,0.89
					C182.73,504.88,183.17,505.11,183.68,505.11z"/>
				<path d="M195.52,505.47c0,1.14-0.21,3.29-3.48,3.29c-1.62,0-3.16-0.36-3.42-2.23h2.28c0.05,0.31,0.17,0.5,0.39,0.6
					c0.2,0.11,0.48,0.15,0.83,0.15c1.09,0,1.2-0.77,1.2-1.62V505h-0.03c-0.42,0.64-1.12,1.02-1.85,1.02c-2.11,0-3.06-1.5-3.06-3.46
					c0-1.85,1.09-3.41,3.06-3.41c0.83,0,1.46,0.36,1.87,1.08h0.03v-0.87h2.19V505.47z M191.99,500.89c-1.01,0-1.33,0.89-1.33,1.75
					c0,0.82,0.38,1.64,1.32,1.64c0.97,0,1.38-0.75,1.38-1.62C193.36,501.76,193.01,500.89,191.99,500.89z"/>
				<path d="M198.93,503.39c0.04,0.95,0.59,1.58,1.56,1.58c0.55,0,1.09-0.25,1.3-0.77h2.13c-0.42,1.61-1.91,2.31-3.46,2.31
					c-2.27,0-3.81-1.37-3.81-3.71c0-2.13,1.71-3.67,3.76-3.67c2.5,0,3.75,1.88,3.64,4.24H198.93z M201.76,502.11
					c-0.04-0.78-0.59-1.42-1.36-1.42c-0.81,0-1.34,0.58-1.48,1.42H201.76z"/>
				<path d="M206.96,504.02c0,0.35,0.15,0.6,0.38,0.78c0.21,0.16,0.52,0.24,0.85,0.24c0.44,0,1.07-0.19,1.07-0.74
					c0-0.54-0.71-0.64-1.12-0.74c-1.44-0.36-3.24-0.4-3.24-2.28c0-1.68,1.81-2.13,3.18-2.13c1.53,0,3.13,0.44,3.21,2.26h-2.11
					c0-0.3-0.11-0.48-0.29-0.6c-0.19-0.12-0.44-0.17-0.73-0.17c-0.38,0-0.98,0.04-0.98,0.52c0,0.66,1.53,0.78,2.58,1.01
					c1.41,0.28,1.77,1.3,1.77,1.88c0,1.87-1.77,2.48-3.34,2.48c-1.65,0-3.34-0.55-3.41-2.5H206.96z"/>
			</g>
			<g>
				<path d="M216.78,501.5c0.04-0.91,0.47-1.5,1.09-1.87c0.62-0.35,1.42-0.48,2.22-0.48c1.65,0,3.25,0.36,3.25,2.34v3.05
					c0,0.59,0,1.24,0.27,1.79h-2.3c-0.08-0.21-0.11-0.43-0.13-0.66c-0.59,0.62-1.46,0.86-2.3,0.86c-1.33,0-2.38-0.67-2.38-2.11
					c0-2.27,2.47-2.09,4.06-2.42c0.39-0.08,0.6-0.22,0.6-0.65c0-0.52-0.63-0.72-1.1-0.72c-0.63,0-1.03,0.28-1.14,0.87H216.78z
					 M219.74,505.11c1.09,0,1.45-0.62,1.4-2.05c-0.32,0.2-0.91,0.24-1.41,0.38c-0.51,0.12-0.94,0.33-0.94,0.89
					C218.78,504.88,219.23,505.11,219.74,505.11z"/>
				<path d="M224.92,499.35h2.22v1.22h0.03c0.34-0.89,1.12-1.36,2.1-1.36c0.17,0,0.36,0.01,0.54,0.05v2.08
					c-0.3-0.08-0.56-0.13-0.87-0.13c-1.13,0-1.72,0.78-1.72,1.65v3.45h-2.28V499.35z"/>
				<path d="M232.26,503.39c0.04,0.95,0.59,1.58,1.56,1.58c0.55,0,1.09-0.25,1.3-0.77h2.13c-0.42,1.61-1.91,2.31-3.46,2.31
					c-2.27,0-3.81-1.37-3.81-3.71c0-2.13,1.71-3.67,3.76-3.67c2.5,0,3.75,1.88,3.64,4.24H232.26z M235.09,502.11
					c-0.04-0.78-0.59-1.42-1.36-1.42c-0.81,0-1.34,0.58-1.48,1.42H235.09z"/>
			</g>
			<g>
				<path d="M242.74,499.35h2.18v0.81h0.03c0.44-0.66,1.11-1.01,1.92-1.01c2.19,0,3.11,1.88,3.11,3.84c0,1.81-0.97,3.53-2.94,3.53
					c-0.86,0-1.52-0.32-1.99-0.95h-0.03v3.09h-2.28V499.35z M244.94,502.76c0,1.22,0.35,2.01,1.38,2.01c1.02,0,1.37-1.06,1.37-2.01
					c0-0.89-0.35-1.87-1.36-1.87C245.72,500.89,244.94,501.32,244.94,502.76z"/>
				<path d="M251.28,499.35h2.22v1.22h0.03c0.34-0.89,1.12-1.36,2.1-1.36c0.17,0,0.36,0.01,0.54,0.05v2.08
					c-0.3-0.08-0.56-0.13-0.87-0.13c-1.13,0-1.72,0.78-1.72,1.65v3.45h-2.28V499.35z"/>
				<path d="M260.01,499.14c2.16,0,3.68,1.6,3.68,3.69s-1.52,3.68-3.68,3.68c-2.16,0-3.67-1.58-3.67-3.68
					S257.84,499.14,260.01,499.14z M260.01,504.77c1.06,0,1.4-1.05,1.4-1.93c0-0.89-0.34-1.95-1.4-1.95c-1.06,0-1.38,1.06-1.38,1.95
					C258.62,503.72,258.94,504.77,260.01,504.77z"/>
				<path d="M264.88,499.35h2.18v0.81h0.03c0.44-0.66,1.11-1.01,1.92-1.01c2.19,0,3.12,1.88,3.12,3.84c0,1.81-0.97,3.53-2.94,3.53
					c-0.86,0-1.52-0.32-1.99-0.95h-0.03v3.09h-2.28V499.35z M267.08,502.76c0,1.22,0.35,2.01,1.38,2.01c1.02,0,1.37-1.06,1.37-2.01
					c0-0.89-0.35-1.87-1.36-1.87C267.86,500.89,267.08,501.32,267.08,502.76z"/>
				<path d="M275.28,503.39c0.04,0.95,0.59,1.58,1.56,1.58c0.55,0,1.09-0.25,1.3-0.77h2.14c-0.42,1.61-1.91,2.31-3.46,2.31
					c-2.27,0-3.81-1.37-3.81-3.71c0-2.13,1.71-3.67,3.76-3.67c2.5,0,3.75,1.88,3.64,4.24H275.28z M278.11,502.11
					c-0.04-0.78-0.59-1.42-1.36-1.42c-0.81,0-1.34,0.58-1.48,1.42H278.11z"/>
				<path d="M281.62,499.35h2.22v1.22h0.03c0.34-0.89,1.12-1.36,2.1-1.36c0.17,0,0.36,0.01,0.54,0.05v2.08
					c-0.3-0.08-0.56-0.13-0.87-0.13c-1.13,0-1.72,0.78-1.72,1.65v3.45h-2.28V499.35z"/>
				<path d="M291.46,500.82h-1.41v3.17c0,0.55,0.32,0.67,0.82,0.67c0.19,0,0.39-0.03,0.59-0.03v1.68c-0.42,0.01-0.83,0.07-1.25,0.07
					c-1.95,0-2.44-0.56-2.44-2.46v-3.1h-1.15v-1.48h1.15v-2.11h2.28v2.11h1.41V500.82z"/>
				<path d="M296.28,506.93c-0.55,1.53-1.37,1.72-2.91,1.72h-1.07v-1.85h0.79c0.52,0,0.91-0.3,0.91-0.78c0-0.38-0.44-1.45-0.58-1.83
					l-1.8-4.85h2.42l1.32,4.54h0.03l1.32-4.54h2.34L296.28,506.93z"/>
			</g>
			<g>
				<path d="M307.24,499.14c2.16,0,3.68,1.6,3.68,3.69s-1.52,3.68-3.68,3.68c-2.16,0-3.67-1.58-3.67-3.68
					S305.08,499.14,307.24,499.14z M307.24,504.77c1.06,0,1.4-1.05,1.4-1.93c0-0.89-0.34-1.95-1.4-1.95c-1.06,0-1.38,1.06-1.38,1.95
					C305.86,503.72,306.18,504.77,307.24,504.77z"/>
				<path d="M312.61,500.82h-1.1v-1.48h1.1c0-2,0.7-2.62,2.65-2.62c0.36,0,0.74,0.03,1.1,0.04v1.61c-0.21-0.03-0.42-0.04-0.62-0.04
					c-0.52,0-0.85,0.07-0.85,0.7v0.31h1.37v1.48h-1.37v5.49h-2.28V500.82z"/>
			</g>
			<g>
				<path d="M325.51,500.82h-1.41v3.17c0,0.55,0.32,0.67,0.82,0.67c0.19,0,0.39-0.03,0.59-0.03v1.68c-0.42,0.01-0.83,0.07-1.25,0.07
					c-1.95,0-2.44-0.56-2.44-2.46v-3.1h-1.15v-1.48h1.15v-2.11h2.28v2.11h1.41V500.82z"/>
				<path d="M326.53,496.73h2.28v3.57h0.03c0.35-0.71,1.29-1.16,2.12-1.16c2.32,0,2.51,1.69,2.51,2.7v4.47h-2.28v-3.37
					c0-0.95,0.11-1.92-1.14-1.92c-0.86,0-1.24,0.72-1.24,1.49v3.8h-2.28V496.73z"/>
				<path d="M336.93,503.39c0.04,0.95,0.59,1.58,1.56,1.58c0.55,0,1.09-0.25,1.3-0.77h2.13c-0.42,1.61-1.91,2.31-3.46,2.31
					c-2.27,0-3.81-1.37-3.81-3.71c0-2.13,1.71-3.67,3.76-3.67c2.5,0,3.75,1.88,3.64,4.24H336.93z M339.77,502.11
					c-0.04-0.78-0.59-1.42-1.36-1.42c-0.81,0-1.34,0.58-1.48,1.42H339.77z"/>
			</g>
			<g>
				<path d="M354.32,506.32h-2.17v-0.81h-0.03c-0.44,0.66-1.12,1.01-1.92,1.01c-2.19,0-3.11-1.88-3.11-3.84
					c0-1.81,0.97-3.53,2.94-3.53c0.86,0,1.52,0.32,1.99,0.95h0.03v-3.37h2.28V506.32z M349.37,502.76c0,0.95,0.35,2.01,1.4,2.01
					c1.11,0,1.36-1.06,1.36-1.95c0-1.01-0.36-1.93-1.36-1.93C349.71,500.89,349.37,501.87,349.37,502.76z"/>
				<path d="M357.82,503.39c0.04,0.95,0.59,1.58,1.56,1.58c0.55,0,1.09-0.25,1.3-0.77h2.13c-0.42,1.61-1.91,2.31-3.46,2.31
					c-2.27,0-3.81-1.37-3.81-3.71c0-2.13,1.71-3.67,3.76-3.67c2.5,0,3.75,1.88,3.64,4.24H357.82z M360.65,502.11
					c-0.04-0.78-0.59-1.42-1.36-1.42c-0.8,0-1.34,0.58-1.47,1.42H360.65z"/>
				<path d="M365.85,504.02c0,0.35,0.15,0.6,0.38,0.78c0.21,0.16,0.52,0.24,0.85,0.24c0.44,0,1.07-0.19,1.07-0.74
					c0-0.54-0.71-0.64-1.11-0.74c-1.44-0.36-3.24-0.4-3.24-2.28c0-1.68,1.81-2.13,3.18-2.13c1.53,0,3.13,0.44,3.21,2.26h-2.11
					c0-0.3-0.11-0.48-0.29-0.6c-0.19-0.12-0.45-0.17-0.73-0.17c-0.38,0-0.98,0.04-0.98,0.52c0,0.66,1.53,0.78,2.58,1.01
					c1.41,0.28,1.77,1.3,1.77,1.88c0,1.87-1.77,2.48-3.34,2.48c-1.65,0-3.34-0.55-3.41-2.5H365.85z"/>
				<path d="M373.9,498.47h-2.28v-1.75h2.28V498.47z M371.62,499.35h2.28v6.97h-2.28V499.35z"/>
				<path d="M382.25,505.47c0,1.14-0.21,3.29-3.48,3.29c-1.62,0-3.15-0.36-3.42-2.23h2.28c0.05,0.31,0.17,0.5,0.39,0.6
					c0.2,0.11,0.48,0.15,0.83,0.15c1.09,0,1.2-0.77,1.2-1.62V505h-0.03c-0.42,0.64-1.12,1.02-1.85,1.02c-2.11,0-3.06-1.5-3.06-3.46
					c0-1.85,1.09-3.41,3.06-3.41c0.83,0,1.46,0.36,1.87,1.08h0.03v-0.87h2.19V505.47z M378.72,500.89c-1.01,0-1.33,0.89-1.33,1.75
					c0,0.82,0.38,1.64,1.32,1.64c0.97,0,1.38-0.75,1.38-1.62C380.09,501.76,379.74,500.89,378.72,500.89z"/>
				<path d="M383.71,499.35h2.21v0.95h0.03c0.42-0.71,1.36-1.16,2.19-1.16c2.32,0,2.51,1.69,2.51,2.7v4.47h-2.28v-3.37
					c0-0.95,0.11-1.92-1.14-1.92c-0.86,0-1.24,0.72-1.24,1.49v3.8h-2.28V499.35z"/>
				<path d="M394.12,503.39c0.04,0.95,0.59,1.58,1.56,1.58c0.55,0,1.09-0.25,1.3-0.77h2.13c-0.42,1.61-1.91,2.31-3.46,2.31
					c-2.27,0-3.81-1.37-3.81-3.71c0-2.13,1.71-3.67,3.76-3.67c2.5,0,3.75,1.88,3.64,4.24H394.12z M396.95,502.11
					c-0.04-0.78-0.59-1.42-1.36-1.42c-0.81,0-1.34,0.58-1.48,1.42H396.95z"/>
				<path d="M400.45,499.35h2.22v1.22h0.03c0.33-0.89,1.11-1.36,2.09-1.36c0.17,0,0.36,0.01,0.54,0.05v2.08
					c-0.3-0.08-0.56-0.13-0.87-0.13c-1.13,0-1.72,0.78-1.72,1.65v3.45h-2.28V499.35z"/>
			</g>
			<path d="M404.96,503.82h2.5v2.5h-2.5V503.82z"/>
			<g>
				<path d="M422.73,500.15c-0.14-0.97-0.89-1.48-1.93-1.48c-1.61,0-2.23,1.42-2.23,2.85c0,1.42,0.62,2.85,2.23,2.85
					c1.17,0,1.84-0.67,1.93-1.77h2.5c-0.14,2.47-1.95,3.92-4.38,3.92c-2.9,0-4.78-2.22-4.78-5c0-2.78,1.88-5,4.78-5
					c2.07,0,4.31,1.32,4.38,3.63H422.73z"/>
				<path d="M426.45,496.73h2.28v3.57h0.03c0.35-0.71,1.29-1.16,2.12-1.16c2.32,0,2.51,1.69,2.51,2.7v4.47h-2.28v-3.37
					c0-0.95,0.11-1.92-1.14-1.92c-0.86,0-1.23,0.72-1.23,1.49v3.8h-2.28V496.73z"/>
				<path d="M436.86,503.39c0.04,0.95,0.59,1.58,1.56,1.58c0.55,0,1.09-0.25,1.3-0.77h2.13c-0.42,1.61-1.91,2.31-3.46,2.31
					c-2.27,0-3.81-1.37-3.81-3.71c0-2.13,1.71-3.67,3.76-3.67c2.5,0,3.75,1.88,3.64,4.24H436.86z M439.69,502.11
					c-0.04-0.78-0.59-1.42-1.36-1.42c-0.81,0-1.34,0.58-1.48,1.42H439.69z"/>
				<path d="M447.65,501.9c-0.01-0.59-0.54-1.01-1.11-1.01c-1.28,0-1.48,1.09-1.48,2.05c0,0.9,0.39,1.83,1.36,1.83
					c0.79,0,1.19-0.46,1.3-1.19h2.22c-0.2,1.87-1.65,2.94-3.5,2.94c-2.09,0-3.65-1.44-3.65-3.57c0-2.22,1.41-3.8,3.65-3.8
					c1.73,0,3.28,0.91,3.44,2.75H447.65z"/>
				<path d="M451.07,496.73h2.28v4.94l2.08-2.32h2.64l-2.55,2.63l2.88,4.34h-2.75l-1.71-2.81l-0.59,0.58v2.23h-2.28V496.73z"/>
			</g>
			<g>
				<path d="M463.34,496.73h2.28v9.59h-2.28V496.73z"/>
				<path d="M469.6,498.47h-2.28v-1.75h2.28V498.47z M467.32,499.35h2.28v6.97h-2.28V499.35z"/>
				<path d="M475.75,501.9c-0.01-0.59-0.54-1.01-1.11-1.01c-1.28,0-1.48,1.09-1.48,2.05c0,0.9,0.39,1.83,1.35,1.83
					c0.79,0,1.2-0.46,1.3-1.19h2.22c-0.2,1.87-1.65,2.94-3.51,2.94c-2.09,0-3.65-1.44-3.65-3.57c0-2.22,1.41-3.8,3.65-3.8
					c1.73,0,3.28,0.91,3.44,2.75H475.75z"/>
				<path d="M481.11,503.39c0.04,0.95,0.59,1.58,1.56,1.58c0.55,0,1.09-0.25,1.3-0.77h2.13c-0.41,1.61-1.91,2.31-3.46,2.31
					c-2.27,0-3.81-1.37-3.81-3.71c0-2.13,1.71-3.67,3.76-3.67c2.5,0,3.75,1.88,3.64,4.24H481.11z M483.95,502.11
					c-0.04-0.78-0.59-1.42-1.36-1.42c-0.81,0-1.34,0.58-1.48,1.42H483.95z"/>
				<path d="M487.37,499.35h2.22v0.95h0.03c0.41-0.71,1.36-1.16,2.19-1.16c2.32,0,2.51,1.69,2.51,2.7v4.47h-2.28v-3.37
					c0-0.95,0.11-1.92-1.14-1.92c-0.86,0-1.23,0.72-1.23,1.49v3.8h-2.28V499.35z"/>
				<path d="M497.6,504.02c0,0.35,0.15,0.6,0.38,0.78c0.21,0.16,0.52,0.24,0.85,0.24c0.44,0,1.07-0.19,1.07-0.74
					c0-0.54-0.71-0.64-1.11-0.74c-1.44-0.36-3.24-0.4-3.24-2.28c0-1.68,1.81-2.13,3.18-2.13c1.53,0,3.13,0.44,3.21,2.26h-2.11
					c0-0.3-0.11-0.48-0.3-0.6c-0.19-0.12-0.44-0.17-0.72-0.17c-0.38,0-0.98,0.04-0.98,0.52c0,0.66,1.53,0.78,2.58,1.01
					c1.41,0.28,1.77,1.3,1.77,1.88c0,1.87-1.77,2.48-3.34,2.48c-1.65,0-3.34-0.55-3.41-2.5H497.6z"/>
				<path d="M505.24,503.39c0.04,0.95,0.59,1.58,1.56,1.58c0.55,0,1.09-0.25,1.3-0.77h2.13c-0.42,1.61-1.91,2.31-3.46,2.31
					c-2.27,0-3.81-1.37-3.81-3.71c0-2.13,1.71-3.67,3.76-3.67c2.5,0,3.75,1.88,3.64,4.24H505.24z M508.07,502.11
					c-0.04-0.78-0.59-1.42-1.36-1.42c-0.81,0-1.34,0.58-1.48,1.42H508.07z"/>
			</g>
			<g>
				<path d="M516.22,500.82h-1.1v-1.48h1.1c0-2,0.7-2.62,2.64-2.62c0.36,0,0.74,0.03,1.1,0.04v1.61c-0.22-0.03-0.42-0.04-0.62-0.04
					c-0.53,0-0.85,0.07-0.85,0.7v0.31h1.37v1.48h-1.37v5.49h-2.28V500.82z"/>
				<path d="M524.02,499.14c2.16,0,3.68,1.6,3.68,3.69s-1.52,3.68-3.68,3.68c-2.16,0-3.67-1.58-3.67-3.68
					S521.86,499.14,524.02,499.14z M524.02,504.77c1.06,0,1.4-1.05,1.4-1.93c0-0.89-0.34-1.95-1.4-1.95c-1.06,0-1.38,1.06-1.38,1.95
					C522.63,503.72,522.95,504.77,524.02,504.77z"/>
				<path d="M528.97,499.35h2.21v1.22h0.03c0.34-0.89,1.12-1.36,2.1-1.36c0.17,0,0.36,0.01,0.54,0.05v2.08
					c-0.29-0.08-0.56-0.13-0.87-0.13c-1.13,0-1.72,0.78-1.72,1.65v3.45h-2.28V499.35z"/>
			</g>
			<g>
				<path d="M538.83,499.35h2.18v0.81h0.03c0.44-0.66,1.12-1.01,1.92-1.01c2.19,0,3.12,1.88,3.12,3.84c0,1.81-0.97,3.53-2.94,3.53
					c-0.86,0-1.52-0.32-1.99-0.95h-0.03v3.09h-2.29V499.35z M541.04,502.76c0,1.22,0.35,2.01,1.38,2.01c1.02,0,1.37-1.06,1.37-2.01
					c0-0.89-0.35-1.87-1.36-1.87C541.82,500.89,541.04,501.32,541.04,502.76z"/>
				<path d="M549.24,503.39c0.04,0.95,0.59,1.58,1.56,1.58c0.55,0,1.09-0.25,1.3-0.77h2.13c-0.42,1.61-1.91,2.31-3.46,2.31
					c-2.27,0-3.81-1.37-3.81-3.71c0-2.13,1.71-3.67,3.76-3.67c2.5,0,3.75,1.88,3.64,4.24H549.24z M552.07,502.11
					c-0.04-0.78-0.59-1.42-1.36-1.42c-0.8,0-1.34,0.58-1.48,1.42H552.07z"/>
				<path d="M555.57,499.35h2.21v1.22h0.03c0.34-0.89,1.12-1.36,2.1-1.36c0.17,0,0.36,0.01,0.54,0.05v2.08
					c-0.29-0.08-0.56-0.13-0.87-0.13c-1.13,0-1.72,0.78-1.72,1.65v3.45h-2.28V499.35z"/>
				<path d="M561.21,499.35h2.21v0.95h0.03c0.42-0.7,1.15-1.16,2-1.16c0.87,0,1.65,0.28,2.03,1.13c0.55-0.74,1.24-1.13,2.18-1.13
					c2.22,0,2.46,1.68,2.46,3.01v4.16h-2.29v-4.1c0-0.75-0.36-1.19-0.95-1.19c-0.98,0-1.07,0.75-1.07,1.88v3.41h-2.28v-3.96
					c0-0.82-0.24-1.33-0.86-1.33c-0.82,0-1.17,0.47-1.17,1.89v3.4h-2.28V499.35z"/>
				<path d="M576.01,498.47h-2.28v-1.75h2.28V498.47z M573.72,499.35h2.28v6.97h-2.28V499.35z"/>
				<path d="M581.82,500.82h-1.41v3.17c0,0.55,0.32,0.67,0.82,0.67c0.19,0,0.39-0.03,0.59-0.03v1.68c-0.41,0.01-0.83,0.07-1.25,0.07
					c-1.95,0-2.44-0.56-2.44-2.46v-3.1h-1.16v-1.48h1.16v-2.11h2.28v2.11h1.41V500.82z"/>
				<path d="M587.04,500.82h-1.41v3.17c0,0.55,0.32,0.67,0.82,0.67c0.19,0,0.39-0.03,0.59-0.03v1.68c-0.42,0.01-0.83,0.07-1.25,0.07
					c-1.95,0-2.45-0.56-2.45-2.46v-3.1h-1.16v-1.48h1.16v-2.11h2.28v2.11h1.41V500.82z"/>
				<path d="M590.01,503.39c0.04,0.95,0.59,1.58,1.56,1.58c0.55,0,1.09-0.25,1.3-0.77H595c-0.41,1.61-1.91,2.31-3.46,2.31
					c-2.27,0-3.81-1.37-3.81-3.71c0-2.13,1.7-3.67,3.76-3.67c2.5,0,3.75,1.88,3.64,4.24H590.01z M592.84,502.11
					c-0.04-0.78-0.59-1.42-1.36-1.42c-0.8,0-1.34,0.58-1.48,1.42H592.84z"/>
				<path d="M603.16,506.32h-2.17v-0.81h-0.03c-0.44,0.66-1.12,1.01-1.92,1.01c-2.19,0-3.11-1.88-3.11-3.84
					c0-1.81,0.97-3.53,2.94-3.53c0.86,0,1.52,0.32,1.99,0.95h0.03v-3.37h2.28V506.32z M598.21,502.76c0,0.95,0.35,2.01,1.4,2.01
					c1.12,0,1.36-1.06,1.36-1.95c0-1.01-0.36-1.93-1.36-1.93C598.56,500.89,598.21,501.87,598.21,502.76z"/>
			</g>
			<g>
				<path d="M615.88,506.32h-2.21v-0.95h-0.03c-0.43,0.71-1.31,1.15-2.12,1.15c-2,0-2.58-1.15-2.58-2.98v-4.19h2.28v4.04
					c0,0.93,0.4,1.25,1.13,1.25c0.5,0,1.25-0.32,1.25-1.56v-3.73h2.28V506.32z"/>
				<path d="M619.18,504.02c0,0.35,0.15,0.6,0.38,0.78c0.21,0.16,0.52,0.24,0.85,0.24c0.44,0,1.07-0.19,1.07-0.74
					c0-0.54-0.71-0.64-1.11-0.74c-1.44-0.36-3.24-0.4-3.24-2.28c0-1.68,1.81-2.13,3.18-2.13c1.53,0,3.13,0.44,3.21,2.26h-2.11
					c0-0.3-0.11-0.48-0.3-0.6c-0.19-0.12-0.45-0.17-0.73-0.17c-0.38,0-0.98,0.04-0.98,0.52c0,0.66,1.53,0.78,2.58,1.01
					c1.41,0.28,1.77,1.3,1.77,1.88c0,1.87-1.77,2.48-3.34,2.48c-1.65,0-3.34-0.55-3.41-2.5H619.18z"/>
				<path d="M626.81,503.39c0.04,0.95,0.59,1.58,1.56,1.58c0.55,0,1.09-0.25,1.3-0.77h2.13c-0.42,1.61-1.91,2.31-3.46,2.31
					c-2.27,0-3.81-1.37-3.81-3.71c0-2.13,1.71-3.67,3.76-3.67c2.5,0,3.75,1.88,3.64,4.24H626.81z M629.65,502.11
					c-0.04-0.78-0.59-1.42-1.36-1.42c-0.81,0-1.34,0.58-1.48,1.42H629.65z"/>
			</g>
			<path d="M633.18,503.82h2.5v2.5h-2.5V503.82z"/>
		</g>
	</g>
</g>
<g id="Vector_Graphics">
	<g>
		<g id="XMLID_1_">
			<g>
				<path class="st4" d="M480.31,83.08c42.27,42.24,66.39,100.41,66.38,160.14c0,59.36-24.33,117.03-66.38,158.88
					C438,444.21,379.83,468.29,320.1,468.29c-59.37,0-117.07-24.27-159.01-66.19c-20.96-20.96-37.51-45.84-48.82-72.91
					s-17.38-56.31-17.38-85.97c0-62.53,25.37-119.15,66.2-160.14c41.89-42.04,99.6-66.33,159.01-66.33
					C379.87,16.75,438.06,40.85,480.31,83.08z M509.6,289.15c4.58-20.3,7.11-41.59,5.14-62.4c-0.79-8.37-4.45-14.86-7.93-22.53
					c-7.42,22.66-14.83,45.33-22.25,68c-0.8,2.47-0.06,6.3-0.06,8.87c0,7.73,0,15.47,0,23.21c0,11.2,0,22.39,0,33.59
					C484.5,337.89,502.62,323.93,509.6,289.15z M497.87,197.61c1.03-3.21-1.99-5.79-3.73-8.52c-10.34-16.22-20.67-32.45-31.01-48.68
					c-2.38-3.73-2.35-5.97-6.67-5.47c-8.99,1.05-17.99,2.1-26.98,3.14c-9.96,1.16-19.92,2.32-29.88,3.49
					c-1.79,0.21-6.72,21.81-7.33,23.83c-3.67,12.02-7.33,24.05-11,36.07c-1.81,5.96,1.2,8.14,4.55,13.56
					c11.52,18.67,23.05,37.33,34.57,56c1.12,1.81,24.57-2.41,27.04-2.66c9.57-0.96,19.15-1.92,28.72-2.88
					c4.84-15.15,9.69-30.3,14.54-45.45C493.09,212.56,495.48,205.09,497.87,197.61z M478.95,344.86
					c-16.95,13.23-33.89,26.45-50.84,39.67c-12.95,10.1-21.57,25.23-31.39,38.29c0,0,23.7-9.74,54.35-34.78
					C478.95,362.93,478.95,344.86,478.95,344.86z M395.61,131.8c19.88-2.77,39.76-5.53,59.64-8.3c-1.77-10.62-0.76-22.61-9.08-30.1
					c-18.86-16.97-44.13-30.34-68.43-37.48c-6.62-1.94-10.02-2.15-16.49-0.64c-11.6,2.72-23.2,5.44-34.8,8.15
					c-2.2,0.52,1.25,25.61,1.52,28.87c0.17,2.26-0.58,5.57,1.61,6.67c3.4,1.69,6.8,3.4,10.21,5.1
					c12.12,6.06,24.24,12.11,36.36,18.17c4.97,2.49,9.95,4.98,14.94,7.46C392.13,130.23,394.38,131.97,395.61,131.8z M413.42,279.45
					c0.94-1.72-10.62-16.87-11.73-18.6c-7.37-11.64-14.73-23.28-22.11-34.91c-1.43-2.27-7.17-14.77-10.09-14.73
					c-9.85,0.17-19.69,0.34-29.53,0.51c-13.16,0.21-26.32,0.44-39.49,0.66c-6.5,0.11-8.76-1.42-11.79,4.1
					c-11.57,21.05-23.14,42.1-34.71,63.16c-3.01,5.51-0.56,6.6,2.79,12.16c6.8,11.33,13.61,22.66,20.41,34
					c5.28,8.79,10.56,17.59,15.85,26.39c1.75,2.91,13.61,0.57,16.63,0.46c21.6-0.74,43.19-1.48,64.79-2.21
					c2.35-4.29,4.7-8.58,7.06-12.86C392.14,318.2,402.78,298.82,413.42,279.45z M391.45,416.98c5.94-8.73,11.89-17.45,17.83-26.18
					c-7.53-6.62-15.05-13.24-22.58-19.85c-4.32-3.8-9.13-10.9-15.19-10.69c-23.16,0.8-46.32,1.59-69.48,2.38
					c-8.04,0.28-8.71,0.56-14.86,5.98c-9.13,8.04-18.26,16.08-27.39,24.12c-2.21,1.95,11.74,16.1,13.66,18.4
					c6.71,8.04,13.43,16.08,20.14,24.12c0.74,0.88,4.02,0.88,5,1c6.76,0.83,13.62,0.89,20.41,0.85c19.79-0.12,40.39-1.06,59.12-8.1
					C385.58,426.2,386.93,423.61,391.45,416.98z M317.57,99.09c2.18-1.31,0.84-4.46,0.65-6.79c-0.31-3.86,0.1-27.92-3.16-28.96
					c-10.83-3.46-21.65-6.92-32.48-10.38c-5.92-1.9-14.49,1.74-20.02,3.46c-25.39,7.88-53.07,20.77-71.27,40.79
					c-3.39,3.74-1.39,7-0.53,11.94c1.31,7.55,2.62,15.12,3.94,22.68c20.68,0.89,41.37,1.78,62.05,2.68
					c5.36,0.23,11.48-5.61,15.86-8.26c11.58-7,23.16-13.98,34.73-20.98C310.75,103.21,314.16,101.15,317.57,99.09z M228.43,414.86
					c15.62,8.17,35.64,19.38,54.04,19.11c-14.09-15.78-26.63-33.98-44.74-45.11c-13.23-8.13-26.46-16.25-39.68-24.37
					c-3.69-2.27-4.09-3.08-8.23-2.05c-6.26,1.55-12.54,3.1-18.81,4.66C184.14,388.17,206.93,403.6,228.43,414.86z M281.66,208.49
					c1.76-3.3-2.11-8.43-3.45-11.6c-7.37-17.45-14.74-34.9-22.11-52.35c-0.64-1.5-15.38-0.85-17.07-0.92
					c-11.01-0.47-22.02-0.93-33.04-1.4c-4.56-0.19-14.2-3.06-16.59,1.51c-5.29,10.16-10.59,20.32-15.89,30.48
					c-5.45,10.46-10.91,20.92-16.36,31.39c-2.54,4.87,1.45,9.4,3.6,14.27c5.46,12.4,10.92,24.8,16.38,37.21
					c0.77,1.74,7.61,20.92,9.28,20.92c19.49,0,38.97,0,58.45,0c8.28-15.63,16.56-31.27,24.84-46.91
					C273.69,223.56,277.68,216.03,281.66,208.49z M187.74,353.2c-3.25-23.66-6.5-47.32-9.75-70.98c-0.45-3.25-2.9-7.05-4.14-10.05
					c-3.04-7.34-6.07-14.66-9.11-22c-4.41-10.67-8.83-21.33-13.24-32c-4.66,3.11-9.32,6.21-13.98,9.32
					c-1.62,1.07-11.11,5.8-11.09,7.8c0.15,20.26,2.23,40.89,6.89,60.61c5.25,22.22,16.83,42.88,30.01,61.37
					c2.98,4.2,4.39,2.18,9.35,0.63C177.7,356.34,182.72,354.77,187.74,353.2z"/>
				<path class="st4" d="M514.27,124.46c41.65,67.87,44.42,155.1,6.52,225.21c-39.45,72.98-117.68,119.64-200.69,119.64
					c-35.16,0-68.74-8.48-98.75-23.45c68.17,33.33,150.75,29.73,216.01-9.58c67.16-40.46,109.85-114.55,109.85-193.06
					c0-125.34-101.71-226.99-227.11-226.99c-34.99,0-69.66,8.34-100.82,24.02c30.46-15.65,64.75-24.53,100.82-24.53
					C398.7,15.72,473.19,57.51,514.27,124.46z"/>
				<path class="st4" d="M547.21,243.22c0,78.51-42.69,152.6-109.85,193.06c-65.26,39.31-147.84,42.91-216.01,9.58
					c-31.27-15.61-58.68-38.28-79.98-65.77c-0.39-0.5-0.78-1-1.15-1.5c-27.6-36.62-44.2-81.33-45.72-128.01
					c-1.55-47.5,12.28-94.01,37.98-132.9c0.12-0.18,0.25-0.37,0.37-0.56c21.48-31.83,50.72-58.19,84.83-76.05
					c0.53-0.27,1.06-0.55,1.6-0.82c31.16-15.68,65.83-24.02,100.82-24.02C445.5,16.23,547.21,117.88,547.21,243.22z M546.69,243.22
					c0.01-59.73-24.11-117.9-66.38-160.14C438.06,40.85,379.87,16.75,320.1,16.75c-59.41,0-117.12,24.29-159.01,66.33
					c-40.83,40.99-66.2,97.61-66.2,160.14c0,29.66,6.07,58.9,17.38,85.97s27.86,51.95,48.82,72.91
					c41.94,41.92,99.64,66.19,159.01,66.19c59.73,0,117.9-24.08,160.21-66.19C522.36,360.25,546.69,302.58,546.69,243.22z"/>
				<path class="st3" d="M514.74,226.75c1.97,20.81-0.56,42.1-5.14,62.4c-6.98,34.78-25.1,48.74-25.1,48.74c0-11.2,0-22.39,0-33.59
					c0-7.74,0-15.48,0-23.21c0-2.57-0.74-6.4,0.06-8.87c7.42-22.67,14.83-45.34,22.25-68C510.29,211.89,513.95,218.38,514.74,226.75
					z"/>
				<path class="st3" d="M494.14,189.09c1.74,2.73,4.76,5.31,3.73,8.52c-2.39,7.48-4.78,14.95-7.18,22.43
					c-4.85,15.15-9.7,30.3-14.54,45.45c-9.57,0.96-19.15,1.92-28.72,2.88c-2.47,0.25-25.92,4.47-27.04,2.66
					c-11.52-18.67-23.05-37.33-34.57-56c-3.35-5.42-6.36-7.6-4.55-13.56c3.67-12.02,7.33-24.05,11-36.07
					c0.61-2.02,5.54-23.62,7.33-23.83c9.96-1.17,19.92-2.33,29.88-3.49c8.99-1.04,17.99-2.09,26.98-3.14
					c4.32-0.5,4.29,1.74,6.67,5.47C473.47,156.64,483.8,172.87,494.14,189.09z"/>
				<path class="st3" d="M428.11,384.53c16.95-13.22,33.89-26.44,50.84-39.67c0,0,0,18.07-27.88,43.18
					c-30.65,25.04-54.35,34.78-54.35,34.78C406.54,409.76,415.16,394.63,428.11,384.53z"/>
				<path class="st3" d="M455.25,123.5c-19.88,2.77-39.76,5.53-59.64,8.3c-1.23,0.17-3.48-1.57-4.52-2.1
					c-4.99-2.48-9.97-4.97-14.94-7.46c-12.12-6.06-24.24-12.11-36.36-18.17c-3.41-1.7-6.81-3.41-10.21-5.1
					c-2.19-1.1-1.44-4.41-1.61-6.67c-0.27-3.26-3.72-28.35-1.52-28.87c11.6-2.71,23.2-5.43,34.8-8.15c6.47-1.51,9.87-1.3,16.49,0.64
					c24.3,7.14,49.57,20.51,68.43,37.48C454.49,100.89,453.48,112.88,455.25,123.5z"/>
				<path class="st3" d="M401.69,260.85c1.11,1.73,12.67,16.88,11.73,18.6c-10.64,19.37-21.28,38.75-31.92,58.13
					c-2.36,4.28-4.71,8.57-7.06,12.86c-21.6,0.73-43.19,1.47-64.79,2.21c-3.02,0.11-14.88,2.45-16.63-0.46
					c-5.29-8.8-10.57-17.6-15.85-26.39c-6.8-11.34-13.61-22.67-20.41-34c-3.35-5.56-5.8-6.65-2.79-12.16
					c11.57-21.06,23.14-42.11,34.71-63.16c3.03-5.52,5.29-3.99,11.79-4.1c13.17-0.22,26.33-0.45,39.49-0.66
					c9.84-0.17,19.68-0.34,29.53-0.51c2.92-0.04,8.66,12.46,10.09,14.73C386.96,237.57,394.32,249.21,401.69,260.85z"/>
				<path class="st3" d="M409.28,390.8c-5.94,8.73-11.89,17.45-17.83,26.18c-4.52,6.63-5.87,9.22-13.34,12.03
					c-18.73,7.04-39.33,7.98-59.12,8.1c-6.79,0.04-13.65-0.02-20.41-0.85c-0.98-0.12-4.26-0.12-5-1
					c-6.71-8.04-13.43-16.08-20.14-24.12c-1.92-2.3-15.87-16.45-13.66-18.4c9.13-8.04,18.26-16.08,27.39-24.12
					c6.15-5.42,6.82-5.7,14.86-5.98c23.16-0.79,46.32-1.58,69.48-2.38c6.06-0.21,10.87,6.89,15.19,10.69
					C394.23,377.56,401.75,384.18,409.28,390.8z"/>
				<path class="st3" d="M318.22,92.3c0.19,2.33,1.53,5.48-0.65,6.79c-3.41,2.06-6.82,4.12-10.23,6.18
					c-11.57,7-23.15,13.98-34.73,20.98c-4.38,2.65-10.5,8.49-15.86,8.26c-20.68-0.9-41.37-1.79-62.05-2.68
					c-1.32-7.56-2.63-15.13-3.94-22.68c-0.86-4.94-2.86-8.2,0.53-11.94c18.2-20.02,45.88-32.91,71.27-40.79
					c5.53-1.72,14.1-5.36,20.02-3.46c10.83,3.46,21.65,6.92,32.48,10.38C318.32,64.38,317.91,88.44,318.22,92.3z"/>
				<path class="st3" d="M282.47,433.97c-18.4,0.27-38.42-10.94-54.04-19.11c-21.5-11.26-44.29-26.69-57.42-47.76
					c6.27-1.56,12.55-3.11,18.81-4.66c4.14-1.03,4.54-0.22,8.23,2.05c13.22,8.12,26.45,16.24,39.68,24.37
					C255.84,399.99,268.38,418.19,282.47,433.97z"/>
				<path class="st3" d="M278.21,196.89c1.34,3.17,5.21,8.3,3.45,11.6c-3.98,7.54-7.97,15.07-11.96,22.6
					c-8.28,15.64-16.56,31.28-24.84,46.91c-19.48,0-38.96,0-58.45,0c-1.67,0-8.51-19.18-9.28-20.92
					c-5.46-12.41-10.92-24.81-16.38-37.21c-2.15-4.87-6.14-9.4-3.6-14.27c5.45-10.47,10.91-20.93,16.36-31.39
					c5.3-10.16,10.6-20.32,15.89-30.48c2.39-4.57,12.03-1.7,16.59-1.51c11.02,0.47,22.03,0.93,33.04,1.4
					c1.69,0.07,16.43-0.58,17.07,0.92C263.47,161.99,270.84,179.44,278.21,196.89z"/>
				<path class="st4" d="M221.35,445.86c-3.44-1.69-6.84-3.46-10.2-5.33c-27.38-15.23-51.05-35.99-69.78-60.44
					C162.67,407.58,190.08,430.25,221.35,445.86z"/>
				<path class="st4" d="M198,52.47c6.37-4.14,12.94-7.95,19.68-11.4c-34.11,17.86-63.35,44.22-84.83,76.05
					C149.79,91.65,171.84,69.47,198,52.47z"/>
				<path class="st3" d="M177.99,282.22c3.25,23.66,6.5,47.32,9.75,70.98c-5.02,1.57-10.04,3.14-15.06,4.7
					c-4.96,1.55-6.37,3.57-9.35-0.63c-13.18-18.49-24.76-39.15-30.01-61.37c-4.66-19.72-6.74-40.35-6.89-60.61
					c-0.02-2,9.47-6.73,11.09-7.8c4.66-3.11,9.32-6.21,13.98-9.32c4.41,10.67,8.83,21.33,13.24,32c3.04,7.34,6.07,14.66,9.11,22
					C175.09,275.17,177.54,278.97,177.99,282.22z"/>
				<path class="st4" d="M94.5,250.58c1.52,46.68,18.12,91.39,45.72,128.01c-28.97-38.01-46.35-85.07-46.35-135.37
					c0-45.94,14.28-89.27,38.61-125.54C106.78,156.57,92.95,203.08,94.5,250.58z"/>
			</g>
			<g>
			</g>
		</g>
	</g>
</g>
</svg>
