<?xml version="1.0" encoding="utf-8"?>
<!-- Generator: Adobe Illustrator 23.0.2, SVG Export Plug-In . SVG Version: 6.00 Build 0)  -->
<svg version="1.1" id="Layer_1" xmlns="http://www.w3.org/2000/svg" xmlns:xlink="http://www.w3.org/1999/xlink" x="0px" y="0px"
	 viewBox="0 0 792 612" style="enable-background:new 0 0 792 612;" xml:space="preserve">
<style type="text/css">
	.st0{fill:#202326;}
</style>
<path class="st0" d="M595.09,435.25H196.91c-13.43,0-24.31-10.89-24.31-24.31v-15.13c0-13.43,10.89-24.31,24.31-24.31h398.17
	c13.43,0,24.31,10.89,24.31,24.31v15.13C619.4,424.36,608.51,435.25,595.09,435.25z"/>
<path class="st0" d="M595.09,337.88H196.91c-13.43,0-24.31-10.89-24.31-24.31v-15.13c0-13.43,10.89-24.31,24.31-24.31h398.17
	c13.43,0,24.31,10.89,24.31,24.31v15.13C619.4,326.99,608.51,337.88,595.09,337.88z"/>
<path class="st0" d="M595.09,240.51H196.91c-13.43,0-24.31-10.89-24.31-24.31v-15.13c0-13.43,10.89-24.31,24.31-24.31h398.17
	c13.43,0,24.31,10.89,24.31,24.31v15.13C619.4,229.62,608.51,240.51,595.09,240.51z"/>
</svg>
