<?xml version="1.0" encoding="utf-8"?>
<!-- Generator: Adobe Illustrator 23.0.2, SVG Export Plug-In . SVG Version: 6.00 Build 0)  -->
<svg version="1.1" id="Layer_1" xmlns="http://www.w3.org/2000/svg" xmlns:xlink="http://www.w3.org/1999/xlink" x="0px" y="0px"
	 viewBox="0 0 612 792" style="enable-background:new 0 0 612 792;" xml:space="preserve">
<style type="text/css">
	.st0{fill:#FEFEFE;}
	.st1{fill:#B13633;}
</style>
<g>
	<g>
		<path class="st0" d="M114.5,392.5c0-23.08-0.01-46.17,0.07-69.25c0-0.59,1.09-1.68,1.68-1.68c126.67-0.07,253.33-0.07,380,0
			c0.58,0,1.67,1.09,1.68,1.68c0.09,24.08,0.07,48.17,0.07,72.25c-2.12-26.5-11.97-49.07-35.64-62.88
			c-39.59-23.09-89.22,5.42-92.95,54.68c-3.1,40.9-12.25,75.38-59.41,84.2c-2.17,0-4.33,0-6.5,0
			c-24.56-2.65-42.84-15.56-51.27-38.06c-5.99-15.98-6.36-34.01-9.81-51.01c-9.14-44.95-48.96-69.55-86.85-52.63
			C129.15,341.6,117.85,364.82,114.5,392.5z"/>
		<path class="st1" d="M310,471.5c47.16-8.82,56.31-43.3,59.41-84.2c3.73-49.26,53.36-77.77,92.95-54.68
			c23.67,13.8,33.52,36.38,35.64,62.88c0,24.67,0.02,49.33-0.08,74c0,0.67-1.25,1.92-1.92,1.92C434,471.51,372,471.5,310,471.5z"/>
		<path class="st1" d="M114.5,392.5c3.35-27.68,14.65-50.9,41.06-62.7c37.89-16.92,77.72,7.68,86.85,52.63
			c3.45,17,3.83,35.03,9.81,51.01c8.43,22.5,26.72,35.41,51.27,38.06c-62.33,0-124.67,0.01-187-0.08c-0.67,0-1.91-1.25-1.92-1.92
			C114.48,443.83,114.5,418.17,114.5,392.5z"/>
	</g>
</g>
</svg>
