<?xml version="1.0" encoding="utf-8"?>
<!-- Generator: Adobe Illustrator 23.0.2, SVG Export Plug-In . SVG Version: 6.00 Build 0)  -->
<svg version="1.1" id="Layer_1" xmlns="http://www.w3.org/2000/svg" xmlns:xlink="http://www.w3.org/1999/xlink" x="0px" y="0px"
	 viewBox="0 0 792 612" style="enable-background:new 0 0 792 612;" xml:space="preserve">
<style type="text/css">
	.st0{fill:#C1272C;}
	.st1{fill:#FFFFFF;}
</style>
<circle class="st0" cx="386.62" cy="310.15" r="269.31"/>
<path class="st1" d="M388.05,503.71L388.05,503.71c-17.27,0-31.4-14.13-31.4-31.4V147.99c0-17.27,14.13-31.4,31.4-31.4h0
	c17.27,0,31.4,14.13,31.4,31.4v324.32C419.45,489.58,405.32,503.71,388.05,503.71z"/>
<path class="st1" d="M371.4,499.27L371.4,499.27c-14.46-9.44-18.57-29-9.12-43.46l92.11-141.04c9.44-14.46,29-18.57,43.46-9.12l0,0
	c14.46,9.44,18.57,29,9.12,43.46l-92.11,141.04C405.42,504.61,385.86,508.72,371.4,499.27z"/>
<path class="st1" d="M405.43,498.51L405.43,498.51c-14.39,9.54-33.98,5.58-43.53-8.82l-93.09-140.4
	c-9.54-14.39-5.58-33.98,8.82-43.53l0,0c14.39-9.54,33.98-5.58,43.53,8.82l93.09,140.4C423.8,469.38,419.83,488.96,405.43,498.51z"
	/>
</svg>
