<?xml version="1.0" encoding="utf-8"?>
<!-- Generator: Adobe Illustrator 23.0.2, SVG Export Plug-In . SVG Version: 6.00 Build 0)  -->
<svg version="1.1" id="Layer_1" xmlns="http://www.w3.org/2000/svg" xmlns:xlink="http://www.w3.org/1999/xlink" x="0px" y="0px"
	 viewBox="0 0 2800 1800" style="enable-background:new 0 0 2800 1800;" xml:space="preserve">
<style type="text/css">
	.st0{fill:#FFFFFF;}
</style>
<g id="XMLID_1_">
	<g>
		<path class="st0" d="M2150.44,424.09c23.71,11.23,39,34.94,38.37,61.15v942.23c0,35.26-33.69,60.22-67.39,50.54
			c-255.21-73.94-510.74-66.76-765.95,21.53c-255.22-88.29-510.74-95.47-765.96-21.53c-33.69,9.68-67.39-15.28-67.39-50.54V485.24
			c0-26.21,14.98-49.92,38.38-61.15c4.37-2.19,8.42-4.06,12.79-5.93v-22.47c0-12.79,6.86-24.33,18.09-30.57
			c253.66-140.09,510.43-143.21,764.09-9.05c253.65-134.16,510.74-131.35,764.08,9.05c11.23,6.24,18.1,17.78,18.1,30.57v22.47
			C2142.01,420.34,2146.07,422.21,2150.44,424.09z M2067.76,1350.1V416.6c-227.45-119.81-449.28-119.81-677.04,0v933.5
			C1615.67,1277.71,1842.81,1277.71,2067.76,1350.1z M1320.84,1350.1V416.6c-227.45-119.81-449.59-119.81-677.04,0v933.5
			c112.32-36.2,225.57-54.29,338.52-54.29C1095.26,1295.81,1208.52,1313.9,1320.84,1350.1z"/>
	</g>
	<g>
	</g>
</g>
</svg>
