<?xml version="1.0" encoding="utf-8"?>
<!-- Generator: Adobe Illustrator 23.0.2, SVG Export Plug-In . SVG Version: 6.00 Build 0)  -->
<svg version="1.1" id="Objects" xmlns="http://www.w3.org/2000/svg" xmlns:xlink="http://www.w3.org/1999/xlink" x="0px" y="0px"
	 viewBox="0 0 800 800" style="enable-background:new 0 0 800 800;" xml:space="preserve">
<style type="text/css">
	.st0{fill:#FFFFFF;}
	.st1{fill:none;}
</style>
<path class="st0" d="M695.07,326.59c-10.03-11.57-29.06-26.56-40.46-35.12c-2.93-2.34-5.94-4.58-9.06-6.68
	c-0.12-0.09-0.2-0.15-0.2-0.15l0,0.02c-22.07-14.77-48.59-23.39-77.14-23.39c-38.45,0-73.26,15.62-98.41,40.87
	c-12.18,11.38-22.68,23.84-33.53,36.05c-13.75,15.47-21.89,7.88-35.64,7.88c-13.75,0-21.89,7.59-35.64-7.88
	c-10.85-12.21-21.36-24.67-33.53-36.05c-25.16-25.24-60.38-40.87-98.83-40.87c-28.55,0-56.77,8.62-77.57,23.39v-0.02
	c0,0,0.34,0.06,0.22,0.15c-3.12,2.1-5.93,4.34-8.86,6.68c-11.4,8.57-30.93,23.56-40.96,35.12C90.56,343.78,58,344.93,58,344.93
	v35.52c0,0,19.48-1.15,25.79,6.3c3.72,4.39,7.74,25.56,14.29,47.7c2,7.89,4.84,15.5,8.13,22.78c3.07,7.24,6.66,13.95,10.75,19.46
	l0.04-0.04c24.86,37.64,67.54,62.49,116.02,62.49c56.3,0,104.75-33.5,126.58-81.64c0.03-0.05,0.07-0.08,0.11-0.14
	c0.11-0.17,0.21-0.35,0.32-0.53c9.97-16.93,20.02-63.29,24.55-70.66c4.58-7.45,16.04-8.02,16.04-8.02s11.46,0.57,16.04,8.02
	c4.54,7.37,14.58,53.73,24.55,70.66c0.11,0.18,0.21,0.36,0.32,0.53c0.03,0.06,0.07,0.09,0.1,0.14
	c21.83,48.14,70.27,81.64,126.57,81.64c48.49,0,91.15-24.85,116-62.49l0.01,0.04c4.1-5.51,7.61-12.22,10.68-19.46
	c3.29-7.29,5.99-14.89,7.99-22.79c6.55-22.14,10.23-43.31,13.95-47.7c6.3-7.45,25.16-6.3,25.16-6.3v-35.52
	C742,344.93,709.96,343.78,695.07,326.59z M233.04,520.25c-66.29,0-120.03-53.74-120.03-120.03s53.74-120.03,120.03-120.03
	c66.29,0,120.03,53.74,120.03,120.03S299.34,520.25,233.04,520.25z M568.21,520.25c-66.29,0-120.03-53.74-120.03-120.03
	s53.74-120.03,120.03-120.03c66.29,0,120.03,53.74,120.03,120.03S634.5,520.25,568.21,520.25z"/>
<path class="st1" d="M353.07,400.22c0-66.29-53.74-120.03-120.03-120.03c-66.29,0-120.03,53.74-120.03,120.03
	s53.74,120.03,120.03,120.03C299.34,520.25,353.07,466.51,353.07,400.22z"/>
<ellipse transform="matrix(0.7071 -0.7071 0.7071 0.7071 -116.5716 519.0068)" class="st1" cx="568.21" cy="400.22" rx="120.03" ry="120.03"/>
</svg>
